<?xml version="1.0" encoding="UTF-8" standalone="no"?>
<!-- Created with Inkscape (http://www.inkscape.org/) -->

<svg
   xmlns:dc="http://purl.org/dc/elements/1.1/"
   xmlns:cc="http://creativecommons.org/ns#"
   xmlns:rdf="http://www.w3.org/1999/02/22-rdf-syntax-ns#"
   xmlns:svg="http://www.w3.org/2000/svg"
   xmlns="http://www.w3.org/2000/svg"
   xmlns:xlink="http://www.w3.org/1999/xlink"
   xmlns:sodipodi="http://sodipodi.sourceforge.net/DTD/sodipodi-0.dtd"
   xmlns:inkscape="http://www.inkscape.org/namespaces/inkscape"
   width="210mm"
   height="297mm"
   viewBox="0 0 210 297"
   version="1.1"
   id="svg8"
   sodipodi:docname="peakProductive.model2svg.svg"
   inkscape:version="0.92.5 (2060ec1f9f, 2020-04-08)">
  <defs
     id="defs2">
    <linearGradient
       inkscape:collect="always"
       id="linearGradient134">
      <stop
         id="stop132"
         offset="0"
         style="stop-color:#8800aa;stop-opacity:1" />
      <stop
         id="stop130"
         offset="1"
         style="stop-color:#aa0088;stop-opacity:1;" />
    </linearGradient>
    <linearGradient
       id="linearGradient3808"
       inkscape:collect="always">
      <stop
         id="stop3804"
         offset="0"
         style="stop-color:#2affd5;stop-opacity:1" />
      <stop
         id="stop3806"
         offset="1"
         style="stop-color:#004455;stop-opacity:1" />
    </linearGradient>
    <linearGradient
       inkscape:collect="always"
       id="linearGradient3765">
      <stop
         style="stop-color:#88aa00;stop-opacity:1;"
         offset="0"
         id="stop3761" />
      <stop
         style="stop-color:#004455;stop-opacity:1"
         offset="1"
         id="stop3763" />
    </linearGradient>
    <linearGradient
       inkscape:collect="always"
       id="linearGradient3741">
      <stop
         style="stop-color:#999999;stop-opacity:0"
         offset="0"
         id="stop3737" />
      <stop
         style="stop-color:#006680;stop-opacity:1"
         offset="1"
         id="stop3739" />
    </linearGradient>
    <linearGradient
       inkscape:collect="always"
       xlink:href="#linearGradient3741"
       id="linearGradient3743"
       x1="-93.013817"
       y1="117.43734"
       x2="-14.768881"
       y2="115.5764"
       gradientUnits="userSpaceOnUse" />
    <linearGradient
       inkscape:collect="always"
       xlink:href="#linearGradient3765"
       id="linearGradient3824"
       gradientUnits="userSpaceOnUse"
       gradientTransform="matrix(0.44267692,0.51061581,-0.48899088,0.46438816,-13.601779,15.39394)"
       x1="116.69186"
       y1="-1.2384349"
       x2="111.63883"
       y2="54.995766" />
    <linearGradient
       inkscape:collect="always"
       xlink:href="#linearGradient3808"
       id="linearGradient3826"
       gradientUnits="userSpaceOnUse"
       gradientTransform="matrix(0.58310631,0.59893768,-0.61087481,0.57171182,-18.114429,1.4770632)"
       x1="114.68169"
       y1="-9.8777361"
       x2="115.3914"
       y2="43.539047" />
    <linearGradient
       inkscape:collect="always"
       xlink:href="#linearGradient3765"
       id="linearGradient3836"
       gradientUnits="userSpaceOnUse"
       gradientTransform="matrix(0.44267692,0.51061581,-0.48899088,0.46438816,-13.601779,15.39394)"
       x1="116.69186"
       y1="-1.2384349"
       x2="111.63883"
       y2="54.995766" />
    <linearGradient
       inkscape:collect="always"
       xlink:href="#linearGradient3808"
       id="linearGradient3838"
       gradientUnits="userSpaceOnUse"
       gradientTransform="matrix(0.58310631,0.59893768,-0.61087481,0.57171182,-18.114429,1.4770632)"
       x1="114.68169"
       y1="-9.8777361"
       x2="115.3914"
       y2="43.539047" />
    <linearGradient
       inkscape:collect="always"
       xlink:href="#linearGradient3765"
       id="linearGradient3846"
       gradientUnits="userSpaceOnUse"
       gradientTransform="matrix(0.13324714,0.15369696,-0.14718779,0.13978229,55.496589,62.402294)"
       x1="116.69186"
       y1="-1.2384349"
       x2="111.63883"
       y2="54.995766" />
    <linearGradient
       inkscape:collect="always"
       xlink:href="#linearGradient3808"
       id="linearGradient3848"
       gradientUnits="userSpaceOnUse"
       gradientTransform="matrix(0.17551682,0.18028212,-0.18387523,0.17208705,54.138267,58.213271)"
       x1="114.68169"
       y1="-9.8777361"
       x2="115.3914"
       y2="43.539047" />
    <linearGradient
       inkscape:collect="always"
       xlink:href="#linearGradient3765"
       id="linearGradient3856"
       gradientUnits="userSpaceOnUse"
       gradientTransform="matrix(0.44267692,0.51061581,-0.48899088,0.46438816,-13.601779,15.39394)"
       x1="116.69186"
       y1="-1.2384349"
       x2="111.63883"
       y2="54.995766" />
    <linearGradient
       inkscape:collect="always"
       xlink:href="#linearGradient3808"
       id="linearGradient3858"
       gradientUnits="userSpaceOnUse"
       gradientTransform="matrix(0.58310631,0.59893768,-0.61087481,0.57171182,-18.114429,1.4770632)"
       x1="114.68169"
       y1="-9.8777361"
       x2="115.3914"
       y2="43.539047" />
    <linearGradient
       inkscape:collect="always"
       xlink:href="#linearGradient134"
       id="linearGradient136"
       x1="42.896759"
       y1="76.769913"
       x2="9.6217031"
       y2="108.84225"
       gradientUnits="userSpaceOnUse"
       gradientTransform="translate(228.29762,28.348214)" />
  </defs>
  <sodipodi:namedview
     id="base"
     pagecolor="#ffffff"
     bordercolor="#666666"
     borderopacity="1.0"
     inkscape:pageopacity="0.0"
     inkscape:pageshadow="2"
     inkscape:zoom="0.49497475"
     inkscape:cx="116.21827"
     inkscape:cy="502.80766"
     inkscape:document-units="mm"
     inkscape:current-layer="layer1"
     showgrid="false"
     inkscape:object-nodes="false"
     showguides="false"
     inkscape:guide-bbox="true"
     inkscape:snap-others="false"
     inkscape:snap-nodes="false"
     inkscape:snap-global="false"
     inkscape:window-width="1366"
     inkscape:window-height="704"
     inkscape:window-x="1366"
     inkscape:window-y="27"
     inkscape:window-maximized="1">
    <sodipodi:guide
       position="72.830947,224.37277"
       orientation="1,0"
       id="guide3921"
       inkscape:locked="false" />
    <sodipodi:guide
       position="74.167292,223.17006"
       orientation="1,0"
       id="guide3923"
       inkscape:locked="false" />
    <sodipodi:guide
       position="82.786734,214.4838"
       orientation="0,1"
       id="guide3943"
       inkscape:locked="false" />
    <sodipodi:guide
       position="83.321273,223.57097"
       orientation="0,1"
       id="guide3945"
       inkscape:locked="false" />
    <sodipodi:guide
       position="84.590804,232.72495"
       orientation="0,1"
       id="guide3947"
       inkscape:locked="false" />
    <sodipodi:guide
       position="84.123082,241.41121"
       orientation="0,1"
       id="guide3949"
       inkscape:locked="false" />
    <sodipodi:guide
       position="96.350663,230.92088"
       orientation="1,0"
       id="guide3970"
       inkscape:locked="false" />
    <sodipodi:guide
       position="117.3616,209.6823"
       orientation="0,1"
       id="guide3972"
       inkscape:locked="false" />
    <sodipodi:guide
       position="117.3616,248.14138"
       orientation="0,1"
       id="guide3974"
       inkscape:locked="false" />
  </sodipodi:namedview>
  <metadata
     id="metadata5">
    <rdf:RDF>
      <cc:Work
         rdf:about="">
        <dc:format>image/svg+xml</dc:format>
        <dc:type
           rdf:resource="http://purl.org/dc/dcmitype/StillImage" />
        <dc:title></dc:title>
      </cc:Work>
    </rdf:RDF>
  </metadata>
  <g
     inkscape:label="Layer 1"
     inkscape:groupmode="layer"
     id="layer1">
    <g
       transform="matrix(1.6626506,0,0,1.6626506,-76.233661,-109.67126)"
       id="g4708">
      <rect
         style="fill:#22002b;stroke:none;stroke-width:0.26458332"
         id="rect4674"
         width="44.366741"
         height="47.841244"
         x="89.593788"
         y="131.22398"
         ry="5.9064527" />
      <rect
         ry="1.5119048"
         y="140.13988"
         x="106.02428"
         height="3.0238097"
         width="22.206102"
         id="rect4700"
         style="fill:#ffcc00;stroke:none;stroke-width:0.26458332" />
      <rect
         style="fill:#aad400;stroke:none;stroke-width:0.26458332"
         id="rect4702"
         width="22.206102"
         height="3.0238097"
         x="105.91833"
         y="148.67201"
         ry="1.5119048" />
      <rect
         ry="1.5119048"
         y="158.03839"
         x="105.98515"
         height="3.0238097"
         width="22.206102"
         id="rect4704"
         style="fill:#ff0000;stroke:none;stroke-width:0.26458332" />
      <rect
         style="fill:#00d4aa;stroke:none;stroke-width:0.26458332"
         id="rect4706"
         width="22.206102"
         height="3.0238097"
         x="106.11878"
         y="166.92511"
         ry="1.5119048" />
    </g>
    <g
       id="g3814"
       transform="matrix(1.9373306,0,0,1.9373306,-456.6392,-115.52424)">
      <g
         id="g4670"
         transform="matrix(0.30523413,0,0,0.30523413,185.51768,79.611942)">
        <g
           id="g4738"
           transform="translate(128.87768,127.75048)">
          <path
             inkscape:connector-curvature="0"
             id="rect3769"
             d="m 198.45432,16.92635 c -0.64253,0.007 -1.28236,0.25551 -1.7694,0.74362 l -12.5119,12.53929 -5.69319,-5.84822 c -0.96225,-0.98838 -2.54768,-1.02526 -3.55482,-0.0827 -1.00715,0.94258 -1.04338,2.4972 -0.0811,3.48557 l 7.40161,7.60264 c 0.0461,0.0522 0.0929,0.10431 0.14418,0.15348 0.99526,0.95464 2.58073,0.93695 3.55482,-0.0393 l 14.33349,-14.36451 c 0.97409,-0.97623 0.95702,-2.53093 -0.0382,-3.48557 -0.49763,-0.47732 -1.14289,-0.7114 -1.78542,-0.70435 z"
             style="fill:#d400aa;fill-opacity:1;stroke:none;stroke-width:0.09366526" />
          <path
             style="fill:none;stroke:#ffd42a;stroke-width:2.46499991;stroke-miterlimit:4;stroke-dasharray:none"
             id="path142"
             sodipodi:type="arc"
             sodipodi:cx="184.67162"
             sodipodi:cy="29.672047"
             sodipodi:rx="15.635267"
             sodipodi:ry="15.635267"
             sodipodi:start="5.8917848"
             sodipodi:end="5.2179313"
             d="m 199.12448,23.707452 a 15.635267,15.635267 0 0 1 -6.14943,19.212785 15.635267,15.635267 0 0 1 -19.97186,-2.841009 15.635267,15.635267 0 0 1 -0.54784,-20.165476 15.635267,15.635267 0 0 1 19.78814,-3.921188"
             sodipodi:open="true" />
        </g>
        <g
           transform="translate(130.75637,180.72935)"
           id="g4744">
          <path
             style="fill:#d400aa;fill-opacity:1;stroke:none;stroke-width:0.09366526"
             d="m 198.45432,16.92635 c -0.64253,0.007 -1.28236,0.25551 -1.7694,0.74362 l -12.5119,12.53929 -5.69319,-5.84822 c -0.96225,-0.98838 -2.54768,-1.02526 -3.55482,-0.0827 -1.00715,0.94258 -1.04338,2.4972 -0.0811,3.48557 l 7.40161,7.60264 c 0.0461,0.0522 0.0929,0.10431 0.14418,0.15348 0.99526,0.95464 2.58073,0.93695 3.55482,-0.0393 l 14.33349,-14.36451 c 0.97409,-0.97623 0.95702,-2.53093 -0.0382,-3.48557 -0.49763,-0.47732 -1.14289,-0.7114 -1.78542,-0.70435 z"
             id="path4740"
             inkscape:connector-curvature="0" />
          <path
             sodipodi:open="true"
             d="m 199.12448,23.707452 a 15.635267,15.635267 0 0 1 -6.14943,19.212785 15.635267,15.635267 0 0 1 -19.97186,-2.841009 15.635267,15.635267 0 0 1 -0.54784,-20.165476 15.635267,15.635267 0 0 1 19.78814,-3.921188"
             sodipodi:end="5.2179313"
             sodipodi:start="5.8917848"
             sodipodi:ry="15.635267"
             sodipodi:rx="15.635267"
             sodipodi:cy="29.672047"
             sodipodi:cx="184.67162"
             sodipodi:type="arc"
             id="path4742"
             style="fill:none;stroke:#ffd42a;stroke-width:2.46499991;stroke-miterlimit:4;stroke-dasharray:none" />
        </g>
      </g>
    </g>
    <circle
       style="fill:none;stroke:#000000;stroke-width:0.39179912"
       id="path3828"
       cx="-76.70636"
       cy="56.858326"
       r="20.382511" />
    <g
       id="g3903"
       transform="translate(-207.55772,-2.1705815)">
      <rect
         ry="5.9064527"
         y="131.22398"
         x="89.593788"
         height="47.841244"
         width="44.366741"
         id="rect3810"
         style="fill:#22002b;stroke:none;stroke-width:0.26458332" />
      <g
         id="g3822"
         transform="matrix(0.30100313,0,0,0.30100313,91.288932,125.23167)">
        <path
           inkscape:connector-curvature="0"
           id="path3818"
           d="m 31.433761,77.83769 c -0.501703,-0.0073 -1.00627,0.187134 -1.396649,0.58413 l -10.033568,10.203676 -4.32357,-4.986955 c -0.729839,-0.84185 -1.966396,-0.903426 -2.772593,-0.13778 -0.806198,0.765638 -0.867547,2.059732 -0.137696,2.901581 l 5.612342,6.474156 c 0.03705,0.04768 0.07575,0.0946 0.117505,0.139618 0.756994,0.815159 1.994701,0.831955 2.775455,0.03802 L 32.769903,81.364907 c 0.780757,-0.793979 0.79965,-2.089509 0.04266,-2.904681 -0.378498,-0.407586 -0.877087,-0.615553 -1.378798,-0.622455 z"
           style="fill:url(#linearGradient3824);fill-opacity:1;stroke:none;stroke-width:0.07557774" />
        <path
           inkscape:connector-curvature="0"
           id="path3820"
           d="m 41.54667,74.997576 c -0.642528,0.007 -1.282356,0.255508 -1.769401,0.743622 L 27.265372,88.280484 21.572179,82.432261 c -0.962248,-0.988372 -2.547675,-1.02526 -3.554822,-0.08268 -1.007147,0.942581 -1.043379,2.497204 -0.08113,3.485576 l 7.401615,7.602638 c 0.04607,0.05219 0.09292,0.104309 0.144178,0.153479 0.995257,0.954641 2.580731,0.936956 3.554821,-0.03927 L 43.370332,79.187499 c 0.97409,-0.976231 0.957016,-2.530933 -0.03824,-3.485576 -0.497631,-0.477319 -1.142894,-0.711393 -1.785422,-0.704347 z"
           style="fill:url(#linearGradient3826);fill-opacity:1;stroke:none;stroke-width:0.09366526" />
      </g>
      <g
         transform="matrix(0.30100313,0,0,0.30100313,91.313288,134.32948)"
         id="g3834">
        <path
           style="fill:url(#linearGradient3836);fill-opacity:1;stroke:none;stroke-width:0.07557774"
           d="m 31.433761,77.83769 c -0.501703,-0.0073 -1.00627,0.187134 -1.396649,0.58413 l -10.033568,10.203676 -4.32357,-4.986955 c -0.729839,-0.84185 -1.966396,-0.903426 -2.772593,-0.13778 -0.806198,0.765638 -0.867547,2.059732 -0.137696,2.901581 l 5.612342,6.474156 c 0.03705,0.04768 0.07575,0.0946 0.117505,0.139618 0.756994,0.815159 1.994701,0.831955 2.775455,0.03802 L 32.769903,81.364907 c 0.780757,-0.793979 0.79965,-2.089509 0.04266,-2.904681 -0.378498,-0.407586 -0.877087,-0.615553 -1.378798,-0.622455 z"
           id="path3830"
           inkscape:connector-curvature="0" />
        <path
           style="fill:url(#linearGradient3838);fill-opacity:1;stroke:none;stroke-width:0.09366526"
           d="m 41.54667,74.997576 c -0.642528,0.007 -1.282356,0.255508 -1.769401,0.743622 L 27.265372,88.280484 21.572179,82.432261 c -0.962248,-0.988372 -2.547675,-1.02526 -3.554822,-0.08268 -1.007147,0.942581 -1.043379,2.497204 -0.08113,3.485576 l 7.401615,7.602638 c 0.04607,0.05219 0.09292,0.104309 0.144178,0.153479 0.995257,0.954641 2.580731,0.936956 3.554821,-0.03927 L 43.370332,79.187499 c 0.97409,-0.976231 0.957016,-2.530933 -0.03824,-3.485576 -0.497631,-0.477319 -1.142894,-0.711393 -1.785422,-0.704347 z"
           id="path3832"
           inkscape:connector-curvature="0" />
      </g>
      <g
         id="g3941"
         transform="translate(31.616365,85.588679)">
        <path
           inkscape:connector-curvature="0"
           id="path3840"
           d="m 69.052427,81.198058 c -0.151014,-0.0022 -0.30289,0.05633 -0.420395,0.175825 l -3.020136,3.071339 -1.301408,-1.501089 c -0.219684,-0.2534 -0.591891,-0.271934 -0.834559,-0.04147 -0.242668,0.23046 -0.261134,0.619986 -0.04145,0.873385 l 1.689333,1.948742 c 0.01115,0.01435 0.0228,0.02847 0.03537,0.04202 0.227858,0.245365 0.600411,0.250421 0.835421,0.01144 l 3.460005,-3.518494 c 0.235011,-0.23899 0.240698,-0.628949 0.01284,-0.874318 -0.113929,-0.122685 -0.264006,-0.185284 -0.415022,-0.187361 z"
           style="fill:url(#linearGradient3846);fill-opacity:1;stroke:none;stroke-width:0.02274914" />
        <path
           inkscape:connector-curvature="0"
           id="path3842"
           d="m 72.096445,80.343175 c -0.193403,0.0021 -0.385993,0.07691 -0.532596,0.223833 l -3.76612,3.774364 -1.713669,-1.760333 c -0.289639,-0.297503 -0.766858,-0.308607 -1.070012,-0.02489 -0.303155,0.283719 -0.31406,0.751666 -0.02442,1.049169 l 2.22791,2.288418 c 0.01387,0.01571 0.02797,0.0314 0.0434,0.0462 0.299575,0.28735 0.776808,0.282027 1.070012,-0.01182 l 4.314426,-4.323761 c 0.293204,-0.293849 0.288064,-0.761819 -0.01151,-1.049169 -0.149788,-0.143675 -0.344014,-0.214132 -0.537417,-0.212011 z"
           style="fill:url(#linearGradient3848);fill-opacity:1;stroke:none;stroke-width:0.02819354" />
      </g>
      <g
         transform="matrix(0.30100313,0,0,0.30100313,91.307039,116.54101)"
         id="g3854">
        <path
           style="fill:url(#linearGradient3856);fill-opacity:1;stroke:none;stroke-width:0.07557774"
           d="m 31.433761,77.83769 c -0.501703,-0.0073 -1.00627,0.187134 -1.396649,0.58413 l -10.033568,10.203676 -4.32357,-4.986955 c -0.729839,-0.84185 -1.966396,-0.903426 -2.772593,-0.13778 -0.806198,0.765638 -0.867547,2.059732 -0.137696,2.901581 l 5.612342,6.474156 c 0.03705,0.04768 0.07575,0.0946 0.117505,0.139618 0.756994,0.815159 1.994701,0.831955 2.775455,0.03802 L 32.769903,81.364907 c 0.780757,-0.793979 0.79965,-2.089509 0.04266,-2.904681 -0.378498,-0.407586 -0.877087,-0.615553 -1.378798,-0.622455 z"
           id="path3850"
           inkscape:connector-curvature="0" />
        <path
           style="fill:url(#linearGradient3858);fill-opacity:1;stroke:none;stroke-width:0.09366526"
           d="m 41.54667,74.997576 c -0.642528,0.007 -1.282356,0.255508 -1.769401,0.743622 L 27.265372,88.280484 21.572179,82.432261 c -0.962248,-0.988372 -2.547675,-1.02526 -3.554822,-0.08268 -1.007147,0.942581 -1.043379,2.497204 -0.08113,3.485576 l 7.401615,7.602638 c 0.04607,0.05219 0.09292,0.104309 0.144178,0.153479 0.995257,0.954641 2.580731,0.936956 3.554821,-0.03927 L 43.370332,79.187499 c 0.97409,-0.976231 0.957016,-2.530933 -0.03824,-3.485576 -0.497631,-0.477319 -1.142894,-0.711393 -1.785422,-0.704347 z"
           id="path3852"
           inkscape:connector-curvature="0" />
      </g>
      <rect
         style="fill:#ffcc00;stroke:none;stroke-width:0.26458332"
         id="rect3913"
         width="22.206102"
         height="3.0238097"
         x="106.02428"
         y="140.13988"
         ry="1.5119048" />
      <rect
         ry="1.5119048"
         y="148.67201"
         x="105.91833"
         height="3.0238097"
         width="22.206102"
         id="rect3915"
         style="fill:#aad400;stroke:none;stroke-width:0.26458332" />
      <rect
         style="fill:#ff0000;stroke:none;stroke-width:0.26458332"
         id="rect3917"
         width="22.206102"
         height="3.0238097"
         x="105.98515"
         y="158.03839"
         ry="1.5119048" />
      <rect
         ry="1.5119048"
         y="166.92511"
         x="106.11878"
         height="3.0238097"
         width="22.206102"
         id="rect3919"
         style="fill:#00d4aa;stroke:none;stroke-width:0.26458332" />
    </g>
  </g>
</svg>
