<svg width="915" height="848" viewBox="0 0 915 848" fill="none" xmlns="http://www.w3.org/2000/svg">
<path d="M389.126 537.339C372.283 598.057 367.693 624.338 365.326 696.988C362.851 772.968 376.033 805.417 378.832 816.071C383.925 835.459 395.658 849.271 427.544 847.039C460.79 844.711 560.979 816.158 588.867 806.864C601.138 802.774 659.945 777.747 709.419 747.699C766.136 713.253 798.634 698.021 828.823 666.876C867.321 622.498 902.047 599.121 911.878 526.731C920.38 464.122 908.911 437.254 820.789 363.451C732.667 289.647 684.491 272.642 659.989 266.94C637.117 261.616 582.751 238.196 494.191 313.452C478.232 330.971 432.409 404.586 389.126 537.339Z" fill="#B9ED26"/>
<path d="M247.057 436.974C230.423 503.772 226.197 532.651 225.887 612.358C225.562 695.719 241.108 731.146 244.528 742.797C250.751 763.998 264.112 779.003 299.164 776.164C335.713 773.205 445.171 740.664 475.597 730.13C488.985 725.494 552.971 697.327 606.518 663.767C667.904 625.294 703.221 608.191 735.49 573.665C776.494 524.522 814.007 498.459 822.547 418.946C829.933 350.176 816.452 320.849 717.049 240.983C617.647 161.118 564.043 143.057 536.873 137.103C511.511 131.544 450.884 106.523 355.711 190.142C338.686 209.552 290.537 290.848 247.057 436.974Z" fill="#F2691B"/>
<path d="M60.1199 322.191C29.8467 397.217 20.1952 430.098 6.71118 522.561C-7.39082 619.261 4.78988 662.715 6.83469 676.751C10.5557 702.292 23.5673 721.715 64.6521 723.691C107.491 725.751 239.686 704.441 276.677 696.788C292.954 693.421 371.738 670.35 439.313 639.451C516.78 604.028 560.52 589.488 603.598 554.267C659.203 503.397 706.965 478.787 729.953 387.788C749.835 309.084 739.041 273.02 637.006 165.383C534.971 57.7466 475.83 28.7265 445.326 17.7305C416.853 7.46642 350.72 -30.6885 226.668 52.0528C203.744 72.0197 134.564 159.134 60.1199 322.191Z" fill="#6B2EBA"/>
</svg>
